<svg xmlns="http://www.w3.org/2000/svg" viewBox="0 0 746.81 693.57"><defs><style>.cls-1{fill:#fff;}.cls-1,.cls-2,.cls-3{stroke:#000;stroke-miterlimit:10;}.cls-2{fill:none;}</style></defs><g id="Layer_2" data-name="Layer 2"><g id="Layer_1-2" data-name="Layer 1"><path class="cls-1" d="M718.51,475.52c9.3,1.49,15,10.46,17,17,4.3,14.08-3.66,32.83-16,35-12.94,2.28-29.16-13.91-27-30C694.15,485.25,706.42,473.59,718.51,475.52Z"/><path class="cls-1" d="M690.51,538.52c3-3.06,10.2-9.68,21-11,12.33-1.5,26,4.31,26,9s-14,9.58-26,9A42.36,42.36,0,0,1,690.51,538.52Z"/><path class="cls-1" d="M139.51,524.52c9.3,1.49,15,10.46,17,17,4.3,14.08-3.66,32.83-16,35-12.94,2.28-29.16-13.91-27-30C115.15,534.25,127.42,522.59,139.51,524.52Z"/><path class="cls-1" d="M111.51,587.52c2.95-3.06,10.2-9.68,21-11,12.33-1.5,26.05,4.31,26,9s-14,9.58-26,9A42.36,42.36,0,0,1,111.51,587.52Z"/><path class="cls-1" d="M538.51,602.52c9.3,1.49,15,10.46,17,17,4.3,14.08-3.66,32.83-16,35-12.94,2.28-29.16-13.91-27-30C514.15,612.25,526.42,600.59,538.51,602.52Z"/><polygon class="cls-1" points="331.51 0.52 745.51 68.52 543.51 207.52 118.01 125.11 331.51 0.52"/><polyline class="cls-1" points="117.51 125.52 128.51 160.52 132.51 533.52 534.51 622.52"/><polygon class="cls-1" points="157.51 294.52 512.51 361.52 512.51 453.52 158.51 381.52 157.51 294.52"/><polyline class="cls-1" points="745.51 68.52 720.51 103.52 720.51 480.52 534.51 622.52 534.51 239.52 543.51 207.52"/><polygon class="cls-2" points="158.51 181.52 513.51 248.52 513.51 340.52 159.51 268.52 158.51 181.52"/><path class="cls-1" d="M510.51,665.52c3-3.06,10.2-9.68,21-11,12.33-1.5,26,4.31,26,9s-14,9.58-26,9A42.36,42.36,0,0,1,510.51,665.52Z"/><polygon class="cls-3" points="157.51 407.52 512.51 474.52 512.51 566.52 158.51 494.52 157.51 407.52"/><polygon class="cls-1" points="157.51 494.52 1.51 620.52 355.51 692.52 511.51 566.52 157.51 494.52"/><polygon class="cls-1" points="156.51 407.52 0.51 533.52 1.51 620.52 157.51 494.52 156.51 407.52"/><polygon class="cls-1" points="0.51 533.52 355.51 600.52 355.51 692.52 1.51 620.52 0.51 533.52"/><polygon class="cls-1" points="355.51 600.52 511.51 474.52 511.51 566.52 355.51 692.52 355.51 600.52"/></g></g></svg>