<svg xmlns="http://www.w3.org/2000/svg" viewBox="0 0 636.09 673.07"><defs><style>.cls-1{fill:#fff;stroke:#000;stroke-miterlimit:10;}</style></defs><g id="Layer_2" data-name="Layer 2"><g id="Layer_1-2" data-name="Layer 1"><path class="cls-1" d="M607.78,475.52c9.3,1.49,15,10.46,17,17,4.31,14.08-3.66,32.83-16,35-12.93,2.28-29.16-13.91-27-30C583.43,485.25,595.7,473.59,607.78,475.52Z"/><path class="cls-1" d="M579.78,538.52c3-3.06,10.21-9.68,21-11,12.34-1.5,26.05,4.31,26,9s-14,9.58-26,9A42.36,42.36,0,0,1,579.78,538.52Z"/><path class="cls-1" d="M28.78,524.52c9.3,1.49,15,10.46,17,17,4.31,14.08-3.66,32.83-16,35-12.93,2.28-29.16-13.91-27-30C4.43,534.25,16.7,522.59,28.78,524.52Z"/><path class="cls-1" d="M.78,587.52c3-3.06,10.21-9.68,21-11,12.34-1.5,26.05,4.31,26,9s-14,9.58-26,9A42.36,42.36,0,0,1,.78,587.52Z"/><path class="cls-1" d="M427.78,602.52c9.3,1.49,15,10.46,17,17,4.31,14.08-3.66,32.83-16,35-12.93,2.28-29.16-13.91-27-30C403.43,612.25,415.7,600.59,427.78,602.52Z"/><polygon class="cls-1" points="220.78 0.52 634.78 68.52 432.78 207.52 7.28 125.11 220.78 0.52"/><polyline class="cls-1" points="6.78 125.52 17.78 160.52 21.78 533.52 423.78 622.52"/><polyline class="cls-1" points="634.78 68.52 609.78 103.52 609.78 480.52 423.78 622.52 423.78 239.52 432.78 207.52"/><path class="cls-1" d="M399.78,665.52c3-3.06,10.21-9.68,21-11,12.34-1.5,26.05,4.31,26,9s-14,9.58-26,9A42.36,42.36,0,0,1,399.78,665.52Z"/><polygon class="cls-1" points="46.78 186.52 401.78 253.52 401.78 345.52 47.78 273.52 46.78 186.52"/><polygon class="cls-1" points="46.78 294.52 401.78 361.52 401.78 453.52 47.78 381.52 46.78 294.52"/><polygon class="cls-1" points="46.78 407.52 401.78 474.52 401.78 566.52 47.78 494.52 46.78 407.52"/></g></g></svg>