<svg xmlns="http://www.w3.org/2000/svg" viewBox="0 0 744.81 673.07"><defs><style>.cls-1{fill:#fff;}.cls-1,.cls-2,.cls-3{stroke:#000;stroke-miterlimit:10;}.cls-3{fill:none;}</style></defs><g id="Layer_2" data-name="Layer 2"><g id="Layer_1-2" data-name="Layer 1"><path class="cls-1" d="M716.51,475.52c9.3,1.49,15,10.46,17,17,4.3,14.08-3.66,32.83-16,35-12.94,2.28-29.16-13.91-27-30C692.15,485.25,704.42,473.59,716.51,475.52Z"/><path class="cls-1" d="M688.51,538.52c3-3.06,10.2-9.68,21-11,12.33-1.5,26,4.31,26,9s-14,9.58-26,9A42.36,42.36,0,0,1,688.51,538.52Z"/><path class="cls-1" d="M137.51,524.52c9.3,1.49,15,10.46,17,17,4.3,14.08-3.66,32.83-16,35-12.94,2.28-29.16-13.91-27-30C113.15,534.25,125.42,522.59,137.51,524.52Z"/><path class="cls-1" d="M109.51,587.52c2.95-3.06,10.2-9.68,21-11,12.33-1.5,26.05,4.31,26,9s-14,9.58-26,9A42.36,42.36,0,0,1,109.51,587.52Z"/><path class="cls-1" d="M536.51,602.52c9.3,1.49,15,10.46,17,17,4.3,14.08-3.66,32.83-16,35-12.94,2.28-29.16-13.91-27-30C512.15,612.25,524.42,600.59,536.51,602.52Z"/><polygon class="cls-1" points="329.51 0.52 743.51 68.52 541.51 207.52 116.01 125.11 329.51 0.52"/><polyline class="cls-1" points="115.51 125.52 126.51 160.52 130.51 533.52 532.51 622.52"/><polygon class="cls-2" points="155.51 294.52 510.51 361.52 510.51 453.52 156.51 381.52 155.51 294.52"/><polyline class="cls-1" points="743.51 68.52 718.51 103.52 718.51 480.52 532.51 622.52 532.51 239.52 541.51 207.52"/><polygon class="cls-3" points="156.51 181.52 511.51 248.52 511.51 340.52 157.51 268.52 156.51 181.52"/><path class="cls-1" d="M508.51,665.52c2.95-3.06,10.2-9.68,21-11,12.33-1.5,26,4.31,26,9s-14,9.58-26,9A42.36,42.36,0,0,1,508.51,665.52Z"/><polygon class="cls-1" points="155.51 407.52 510.51 474.52 510.51 566.52 156.51 494.52 155.51 407.52"/><polygon class="cls-1" points="157.51 382.52 1.51 508.52 355.51 580.52 511.51 454.52 157.51 382.52"/><polygon class="cls-1" points="156.51 295.52 0.51 421.52 1.51 508.52 157.51 382.52 156.51 295.52"/><polygon class="cls-1" points="0.51 421.52 355.51 488.52 355.51 580.52 1.51 508.52 0.51 421.52"/><polygon class="cls-1" points="355.51 488.52 511.51 362.52 511.51 454.52 355.51 580.52 355.51 488.52"/></g></g></svg>